<?xml version="1.0" encoding="UTF-8" standalone="no"?>
<!DOCTYPE svg PUBLIC "-//W3C//DTD SVG 1.1//EN" "http://www.w3.org/Graphics/SVG/1.1/DTD/svg11.dtd">
<svg width="100%" height="100%" viewBox="0 0 2732 2048" version="1.1" xmlns="http://www.w3.org/2000/svg" xmlns:xlink="http://www.w3.org/1999/xlink" xml:space="preserve" xmlns:serif="http://www.serif.com/" style="fill-rule:evenodd;clip-rule:evenodd;stroke-linejoin:round;stroke-miterlimit:1.41421;">
    <g transform="matrix(2.21359,0,0,2.21359,-1841.96,-2102.89)">
        <g transform="matrix(0.973598,0.162446,-0.162446,0.973598,426.45,175.348)">
            <path d="M1235.77,680.458C1222.93,679.847 1210.07,679.847 1197.23,680.458L1168.58,759.287C1151.49,761.797 1134.62,765.647 1118.14,770.8L1058.12,712.209C1046.29,717.229 1034.7,722.81 1023.4,728.931L1031.79,812.385C1017.48,822.061 1003.95,832.847 991.335,844.643L911.84,817.895C903.357,827.552 895.339,837.607 887.811,848.026L931.578,919.576C922.885,934.502 915.38,950.088 909.129,966.191L825.901,976.583C822.449,988.965 819.587,1001.5 817.325,1014.16L887.802,1059.63C886.447,1076.85 886.447,1094.15 887.802,1111.37L817.325,1156.84C819.587,1169.5 822.449,1182.04 825.901,1194.42L909.129,1204.81C915.38,1220.91 922.885,1236.5 931.578,1251.42L887.811,1322.97C895.339,1333.39 903.357,1343.45 911.84,1353.11L991.335,1326.36C1003.95,1338.15 1017.48,1348.94 1031.79,1358.62L1023.4,1442.07C1034.7,1448.19 1046.29,1453.77 1058.12,1458.79L1118.14,1400.2C1134.62,1405.35 1151.49,1409.2 1168.58,1411.71L1197.23,1490.54C1210.07,1491.15 1222.93,1491.15 1235.77,1490.54L1264.42,1411.71C1281.51,1409.2 1298.38,1405.35 1314.86,1400.2L1374.88,1458.79C1386.71,1453.77 1398.3,1448.19 1409.6,1442.07L1401.21,1358.62C1415.52,1348.94 1429.05,1338.15 1441.66,1326.36L1521.16,1353.11C1529.64,1343.45 1537.66,1333.39 1545.19,1322.97L1501.42,1251.42C1510.12,1236.5 1517.62,1220.91 1523.87,1204.81L1607.1,1194.42C1610.55,1182.04 1613.41,1169.5 1615.67,1156.84L1545.2,1111.37C1546.55,1094.15 1546.55,1076.85 1545.2,1059.63L1615.67,1014.16C1613.41,1001.5 1610.55,988.965 1607.1,976.583L1523.87,966.191C1517.62,950.088 1510.12,934.502 1501.42,919.576L1545.19,848.026C1537.66,837.607 1529.64,827.552 1521.16,817.895L1441.66,844.643C1429.05,832.847 1415.52,822.061 1401.21,812.385L1409.6,728.931C1398.3,722.81 1386.71,717.229 1374.88,712.209L1314.86,770.8C1298.38,765.647 1281.51,761.797 1264.42,759.287L1235.77,680.458ZM1216.5,809.649C1368.75,809.649 1492.35,933.254 1492.35,1085.5C1492.35,1237.75 1368.75,1361.35 1216.5,1361.35C1064.25,1361.35 940.649,1237.75 940.649,1085.5C940.649,933.254 1064.25,809.649 1216.5,809.649Z"/>
        </g>
        <g transform="matrix(1.37675,0,0,1.37675,-1535.72,568.41)">
            <path d="M2110.32,713.027L2119.18,712.806L2066.46,838.075L2018.94,810.638L2101.26,698.471L2110.32,713.027Z"/>
        </g>
        <g transform="matrix(1.37675,0,0,1.37675,-1535.72,568.41)">
            <path d="M2215.4,700.97L2295.88,810.638L2248.36,838.075L2194.85,710.912L2210.25,710.527L2215.4,700.97Z"/>
        </g>
        <g transform="matrix(1.37675,0,0,1.37675,-1535.72,568.41)">
            <path d="M2065.93,612.495L2057.48,628.174L2061.7,634.95L1927.99,653.11L1927.99,598.236L2065.93,612.495Z"/>
        </g>
        <g transform="matrix(1.37675,0,0,1.37675,-1535.72,568.41)">
            <path d="M2250.58,612.32L2386.83,598.236L2386.83,653.11L2251.14,634.681L2257.34,623.173L2250.58,612.32Z"/>
        </g>
        <g transform="matrix(1.37675,0,0,1.37675,-1535.72,568.41)">
            <path d="M2193.74,538.588L2248.36,413.272L2295.88,440.709L2212.05,550.438L2204.5,538.319L2193.74,538.588Z"/>
        </g>
        <g transform="matrix(1.37675,0,0,1.37675,-1535.72,568.41)">
            <path d="M2121.86,540.387L2104.57,540.819L2100.79,547.839L2018.94,440.709L2066.46,413.272L2121.86,540.387Z"/>
        </g>
        <g transform="matrix(1.37675,0,0,1.37675,24.0576,-150.617)">
            <path d="M1010.94,1176.38C1015.01,1178.37 1019.62,1179.47 1024.47,1179.47C1029.33,1179.47 1033.93,1178.37 1038.01,1176.38L1061.91,1233.18L986.238,1235.07L1010.94,1176.38Z"/>
        </g>
        <g transform="matrix(1.37675,0,0,1.37675,24.0576,-150.617)">
            <path d="M1055.98,1148.5L1118.2,1156.94L1082.46,1223.24L1044.85,1171.98C1051.55,1166.31 1055.84,1157.89 1055.98,1148.5Z"/>
        </g>
        <g transform="matrix(1.37675,0,0,1.37675,24.0576,-150.617)">
            <path d="M992.964,1148.5C993.113,1157.91 997.404,1166.32 1004.1,1171.98L968.316,1220.74L928.762,1157.21L992.964,1148.5Z"/>
        </g>
        <g transform="matrix(1.37675,0,0,1.37675,24.0576,-150.617)">
            <path d="M993.718,1141.04L932.995,1134.76L967.849,1070.1L1007.18,1121.59C1000.45,1126 995.511,1132.93 993.718,1141.04Z"/>
        </g>
        <g transform="matrix(1.37675,0,0,1.37675,24.0576,-150.617)">
            <path d="M1041.76,1121.59L1079.11,1072.7L1117.64,1134.58L1055.22,1141.04C1053.42,1132.94 1048.51,1126.02 1041.76,1121.59Z"/>
        </g>
        <g transform="matrix(1.37675,0,0,1.37675,24.0576,-150.617)">
            <path d="M1013.26,1118.49L988.924,1062.65L1060.8,1060.85L1035.68,1118.49C1032.24,1117.14 1028.44,1116.4 1024.47,1116.4C1020.5,1116.4 1016.71,1117.14 1013.26,1118.49Z"/>
        </g>
        <g transform="matrix(1.37675,0,0,1.37675,24.0576,-150.617)">
            <path d="M1004.1,1171.98C1006.16,1173.74 1008.45,1175.23 1010.94,1176.38L986.238,1235.07L977.381,1235.29L968.316,1220.74L1004.1,1171.98Z"/>
        </g>
        <g transform="matrix(1.37675,0,0,1.37675,24.0576,-150.617)">
            <path d="M1044.85,1171.98L1082.46,1223.24L1077.31,1232.79L1061.91,1233.18L1038.01,1176.38C1040.49,1175.21 1042.79,1173.72 1044.85,1171.98Z"/>
        </g>
        <g transform="matrix(1.37675,0,0,1.37675,24.0576,-150.617)">
            <path d="M932.995,1134.76L993.718,1141.04C993.199,1143.24 992.936,1145.56 992.936,1147.94L992.964,1148.5L928.762,1157.21L924.543,1150.44L932.995,1134.76Z"/>
        </g>
        <g transform="matrix(1.37675,0,0,1.37675,24.0576,-150.617)">
            <path d="M1124.4,1145.44L1118.2,1156.94L1055.98,1148.5L1056.01,1147.94C1056.01,1145.56 1055.74,1143.24 1055.22,1141.04L1117.64,1134.58L1124.4,1145.44Z"/>
        </g>
        <g transform="matrix(1.37675,0,0,1.37675,24.0576,-150.617)">
            <path d="M988.924,1062.65L1013.26,1118.49C1011.12,1119.31 1009.08,1120.35 1007.18,1121.59L967.849,1070.1L971.634,1063.08L988.924,1062.65Z"/>
        </g>
        <g transform="matrix(1.37675,0,0,1.37675,24.0576,-150.617)">
            <path d="M1079.11,1072.7L1041.76,1121.59C1039.87,1120.33 1037.83,1119.28 1035.68,1118.49L1060.8,1060.85L1071.56,1060.58L1079.11,1072.7Z"/>
        </g>
    </g>
</svg>
