<?xml version="1.0" encoding="UTF-8" standalone="no"?>
<!DOCTYPE svg PUBLIC "-//W3C//DTD SVG 1.1//EN" "http://www.w3.org/Graphics/SVG/1.1/DTD/svg11.dtd">
<svg width="100%" height="100%" viewBox="0 0 2732 2048" version="1.1" xmlns="http://www.w3.org/2000/svg" xmlns:xlink="http://www.w3.org/1999/xlink" xml:space="preserve" xmlns:serif="http://www.serif.com/" style="fill-rule:evenodd;clip-rule:evenodd;stroke-linejoin:round;stroke-miterlimit:1.41421;">
    <g transform="matrix(1.7451,0,0,1.7451,-322.883,-145.852)">
        <g transform="matrix(1.37675,0,0,1.37675,-704.291,-829.191)">
            <path d="M1228.77,680.186C1220.59,679.938 1212.41,679.938 1204.24,680.186L1178.67,750.834C1171.92,751.597 1165.2,752.564 1158.51,753.734L1114.08,693.148C1106.16,695.214 1098.32,697.519 1090.54,700.059L1085.92,775.047C1079.66,777.681 1073.48,780.503 1067.39,783.511L1007.69,737.897C1000.68,742.108 993.796,746.531 987.052,751.159L1003.75,824.411C998.479,828.702 993.344,833.152 988.347,837.754L918.216,810.806C912.675,816.822 907.318,823.005 902.152,829.345L938.806,894.927C934.962,900.528 931.289,906.244 927.791,912.067L852.908,905.969C849.287,913.303 845.889,920.744 842.718,928.283L896.364,980.882C894.254,987.339 892.34,993.859 890.624,1000.43L817.057,1015.68C815.648,1023.73 814.484,1031.83 813.566,1039.96L879.857,1075.31C879.652,1082.1 879.652,1088.9 879.857,1095.69L813.566,1131.04C814.484,1139.17 815.648,1147.27 817.057,1155.32L890.624,1170.57C892.34,1177.14 894.254,1183.66 896.364,1190.12L842.718,1242.72C845.889,1250.26 849.287,1257.7 852.908,1265.03L927.791,1258.93C931.289,1264.76 934.962,1270.47 938.806,1276.07L902.152,1341.65C907.318,1348 912.675,1354.18 918.216,1360.19L988.347,1333.25C993.344,1337.85 998.479,1342.3 1003.75,1346.59L987.052,1419.84C993.796,1424.47 1000.68,1428.89 1007.69,1433.1L1067.39,1387.49C1073.48,1390.5 1079.66,1393.32 1085.92,1395.95L1090.54,1470.94C1098.32,1473.48 1106.16,1475.79 1114.08,1477.85L1158.51,1417.27C1165.2,1418.44 1171.92,1419.4 1178.67,1420.17L1204.24,1490.81C1212.41,1491.06 1220.59,1491.06 1228.77,1490.81L1254.33,1420.17C1261.08,1419.4 1267.8,1418.44 1274.49,1417.27L1318.92,1477.85C1326.84,1475.79 1334.68,1473.48 1342.46,1470.94L1347.08,1395.95C1353.34,1393.32 1359.52,1390.5 1365.61,1387.49L1425.31,1433.1C1432.32,1428.89 1439.2,1424.47 1445.95,1419.84L1429.26,1346.59C1434.52,1342.3 1439.66,1337.85 1444.65,1333.25L1514.78,1360.19C1520.33,1354.18 1525.68,1348 1530.85,1341.65L1494.19,1276.07C1498.04,1270.47 1501.71,1264.76 1505.21,1258.93L1580.09,1265.03C1583.71,1257.7 1587.11,1250.26 1590.28,1242.72L1536.64,1190.12C1538.75,1183.66 1540.66,1177.14 1542.38,1170.57L1615.94,1155.32C1617.35,1147.27 1618.52,1139.17 1619.43,1131.04L1553.14,1095.69C1553.35,1088.9 1553.35,1082.1 1553.14,1075.31L1619.43,1039.96C1618.52,1031.83 1617.35,1023.73 1615.94,1015.68L1542.38,1000.43C1540.66,993.859 1538.75,987.339 1536.64,980.882L1590.28,928.283C1587.11,920.744 1583.71,913.303 1580.09,905.969L1505.21,912.067C1501.71,906.244 1498.04,900.528 1494.19,894.927L1530.85,829.345C1525.68,823.005 1520.33,816.822 1514.78,810.806L1444.65,837.754C1439.66,833.152 1434.52,828.702 1429.26,824.411L1438.56,783.595L1445.95,751.159C1439.2,746.531 1432.32,742.108 1425.31,737.897L1365.61,783.511C1359.52,780.503 1353.34,777.681 1347.08,775.047L1342.46,700.059C1334.68,697.519 1326.84,695.214 1318.92,693.148L1274.49,753.734C1267.8,752.564 1261.08,751.597 1254.33,750.834L1228.77,680.186ZM1216.5,809.649C1368.75,809.649 1492.35,933.254 1492.35,1085.5C1492.35,1237.75 1368.75,1361.35 1216.5,1361.35C1064.25,1361.35 940.649,1237.75 940.649,1085.5C940.649,933.254 1064.25,809.649 1216.5,809.649Z"/>
        </g>
        <g transform="matrix(0.96611,0,0,0.96611,-240.012,-344.316)">
            <path d="M1233.49,1102.22C1236.47,1103.26 1239.55,1104.07 1242.74,1104.56L1277.71,1163.46C1269.73,1165.13 1261.47,1166 1253,1166C1223.12,1166 1195.76,1155.15 1174.66,1137.15L1233.49,1102.22Z"/>
        </g>
        <g transform="matrix(0.96611,0,0,0.96611,-240.012,-344.316)">
            <path d="M1371.46,1020.29C1373.13,1028.27 1374,1036.53 1374,1045C1374,1074.88 1363.15,1102.24 1345.15,1123.34L1310.22,1064.51C1311.26,1061.53 1312.07,1058.45 1312.56,1055.26L1371.46,1020.29Z"/>
        </g>
        <g transform="matrix(0.96611,0,0,0.96611,-240.012,-344.316)">
            <path d="M1160.85,966.661L1195.78,1025.49C1194.74,1028.47 1193.93,1031.55 1193.44,1034.74L1134.54,1069.71C1132.87,1061.73 1132,1053.47 1132,1045C1132,1015.12 1142.85,987.756 1160.85,966.661Z"/>
        </g>
        <g transform="matrix(0.96611,0,0,0.96611,-240.012,-344.316)">
            <path d="M1228.29,926.538C1236.27,924.872 1244.53,924 1253,924C1282.88,924 1310.24,934.854 1331.34,952.849L1272.51,987.782C1269.53,986.736 1266.45,985.931 1263.26,985.436L1228.29,926.538Z"/>
        </g>
        <g transform="matrix(1.8634,0.474905,-0.474905,1.8634,-413.899,-1186.81)">
            <path d="M990.083,782.205L1108.69,900.811L1080.81,928.689L962.228,810.106C974.575,804.076 984.249,794.131 990.083,782.205Z"/>
        </g>
        <g transform="matrix(1.8634,0.474905,-0.474905,1.8634,-413.899,-1186.81)">
            <path d="M880.894,782.228C886.924,794.575 896.869,804.249 908.795,810.083L790.189,928.689L762.311,900.811L880.894,782.228Z"/>
        </g>
        <g transform="matrix(1.8634,0.474905,-0.474905,1.8634,-413.899,-1186.81)">
            <path d="M962.205,700.917L1080.81,582.311L1108.69,610.189L990.106,728.772C984.076,716.425 974.131,706.751 962.205,700.917Z"/>
        </g>
        <g transform="matrix(1.8634,0.474905,-0.474905,1.8634,-413.899,-1186.81)">
            <path d="M908.772,700.894C896.425,706.924 886.751,716.869 880.917,728.795L762.311,610.189L790.189,582.311L908.772,700.894Z"/>
        </g>
        <g transform="matrix(1.8634,0.474905,-0.474905,1.8634,-413.899,-1186.81)">
            <path d="M965.777,757.899L990.083,782.205C984.258,794.118 974.584,804.073 962.228,810.106L937.894,785.772C939.601,785.668 941.306,785.388 943.007,784.954C955.941,781.658 964.81,770.499 965.777,757.899Z"/>
        </g>
        <g transform="matrix(1.8634,0.474905,-0.474905,1.8634,-413.899,-1186.81)">
            <path d="M905.228,757.894C905.332,759.601 905.612,761.306 906.046,763.007C909.342,775.941 920.501,784.81 933.101,785.777L908.795,810.083C896.882,804.258 886.927,794.584 880.894,782.228L905.228,757.894Z"/>
        </g>
        <g transform="matrix(1.8634,0.474905,-0.474905,1.8634,-413.899,-1186.81)">
            <path d="M962.205,700.917C974.118,706.742 984.073,716.416 990.106,728.772L965.772,753.106C965.668,751.399 965.388,749.694 964.954,747.993C961.658,735.059 950.499,726.19 937.899,725.223L962.205,700.917Z"/>
        </g>
        <g transform="matrix(1.8634,0.474905,-0.474905,1.8634,-413.899,-1186.81)">
            <path d="M908.772,700.894L933.106,725.228C931.399,725.332 929.694,725.612 927.993,726.046C915.059,729.342 906.19,740.501 905.223,753.101L880.917,728.795C886.742,716.882 896.416,706.927 908.772,700.894Z"/>
        </g>
    </g>
</svg>
