<?xml version="1.0" encoding="UTF-8" standalone="no"?>
<!DOCTYPE svg PUBLIC "-//W3C//DTD SVG 1.1//EN" "http://www.w3.org/Graphics/SVG/1.1/DTD/svg11.dtd">
<svg width="100%" height="100%" viewBox="0 0 2732 2048" version="1.1" xmlns="http://www.w3.org/2000/svg" xmlns:xlink="http://www.w3.org/1999/xlink" xml:space="preserve" xmlns:serif="http://www.serif.com/" style="fill-rule:evenodd;clip-rule:evenodd;stroke-linejoin:round;stroke-miterlimit:1.41421;">
    <g>
        <g transform="matrix(1.37675,0,0,1.37675,-704.291,-829.191)">
            <path d="M1228.77,680.186C1220.59,679.938 1212.41,679.938 1204.24,680.186L1178.67,750.834C1171.92,751.597 1165.2,752.564 1158.51,753.734L1114.08,693.148C1106.16,695.214 1098.32,697.519 1090.54,700.059L1085.92,775.047C1079.66,777.681 1073.48,780.503 1067.39,783.511L1007.69,737.897C1000.68,742.108 993.796,746.531 987.052,751.159L1003.75,824.411C998.479,828.702 993.344,833.152 988.347,837.754L918.216,810.806C912.675,816.822 907.318,823.005 902.152,829.345L938.806,894.927C934.962,900.528 931.289,906.244 927.791,912.067L852.908,905.969C849.287,913.303 845.889,920.744 842.718,928.283L896.364,980.882C894.254,987.339 892.34,993.859 890.624,1000.43L817.057,1015.68C815.648,1023.73 814.484,1031.83 813.566,1039.96L879.857,1075.31C879.652,1082.1 879.652,1088.9 879.857,1095.69L813.566,1131.04C814.484,1139.17 815.648,1147.27 817.057,1155.32L890.624,1170.57C892.34,1177.14 894.254,1183.66 896.364,1190.12L842.718,1242.72C845.889,1250.26 849.287,1257.7 852.908,1265.03L927.791,1258.93C931.289,1264.76 934.962,1270.47 938.806,1276.07L902.152,1341.65C907.318,1348 912.675,1354.18 918.216,1360.19L988.347,1333.25C993.344,1337.85 998.479,1342.3 1003.75,1346.59L987.052,1419.84C993.796,1424.47 1000.68,1428.89 1007.69,1433.1L1067.39,1387.49C1073.48,1390.5 1079.66,1393.32 1085.92,1395.95L1090.54,1470.94C1098.32,1473.48 1106.16,1475.79 1114.08,1477.85L1158.51,1417.27C1165.2,1418.44 1171.92,1419.4 1178.67,1420.17L1204.24,1490.81C1212.41,1491.06 1220.59,1491.06 1228.77,1490.81L1254.33,1420.17C1261.08,1419.4 1267.8,1418.44 1274.49,1417.27L1318.92,1477.85C1326.84,1475.79 1334.68,1473.48 1342.46,1470.94L1347.08,1395.95C1353.34,1393.32 1359.52,1390.5 1365.61,1387.49L1425.31,1433.1C1432.32,1428.89 1439.2,1424.47 1445.95,1419.84L1429.26,1346.59C1434.52,1342.3 1439.66,1337.85 1444.65,1333.25L1514.78,1360.19C1520.33,1354.18 1525.68,1348 1530.85,1341.65L1494.19,1276.07C1498.04,1270.47 1501.71,1264.76 1505.21,1258.93L1580.09,1265.03C1583.71,1257.7 1587.11,1250.26 1590.28,1242.72L1536.64,1190.12C1538.75,1183.66 1540.66,1177.14 1542.38,1170.57L1615.94,1155.32C1617.35,1147.27 1618.52,1139.17 1619.43,1131.04L1553.14,1095.69C1553.35,1088.9 1553.35,1082.1 1553.14,1075.31L1619.43,1039.96C1618.52,1031.83 1617.35,1023.73 1615.94,1015.68L1542.38,1000.43C1540.66,993.859 1538.75,987.339 1536.64,980.882L1590.28,928.283C1587.11,920.744 1583.71,913.303 1580.09,905.969L1505.21,912.067C1501.71,906.244 1498.04,900.528 1494.19,894.927L1530.85,829.345C1525.68,823.005 1520.33,816.822 1514.78,810.806L1444.65,837.754C1439.66,833.152 1434.52,828.702 1429.26,824.411L1438.56,783.595L1445.95,751.159C1439.2,746.531 1432.32,742.108 1425.31,737.897L1365.61,783.511C1359.52,780.503 1353.34,777.681 1347.08,775.047L1342.46,700.059C1334.68,697.519 1326.84,695.214 1318.92,693.148L1274.49,753.734C1267.8,752.564 1261.08,751.597 1254.33,750.834L1228.77,680.186ZM1216.5,809.649C1368.75,809.649 1492.35,933.254 1492.35,1085.5C1492.35,1237.75 1368.75,1361.35 1216.5,1361.35C1064.25,1361.35 940.649,1237.75 940.649,1085.5C940.649,933.254 1064.25,809.649 1216.5,809.649Z"/>
        </g>
        <g transform="matrix(0.96611,0,0,0.96611,-240.012,-344.316)">
            <path d="M1233.49,1102.22C1236.47,1103.26 1239.55,1104.07 1242.74,1104.56L1277.71,1163.46C1269.73,1165.13 1261.47,1166 1253,1166C1223.12,1166 1195.76,1155.15 1174.66,1137.15L1233.49,1102.22Z"/>
        </g>
        <g transform="matrix(0.96611,0,0,0.96611,-240.012,-344.316)">
            <path d="M1371.46,1020.29C1373.13,1028.27 1374,1036.53 1374,1045C1374,1074.88 1363.15,1102.24 1345.15,1123.34L1310.22,1064.51C1311.26,1061.53 1312.07,1058.45 1312.56,1055.26L1371.46,1020.29Z"/>
        </g>
        <g transform="matrix(0.96611,0,0,0.96611,-240.012,-344.316)">
            <path d="M1160.85,966.661L1195.78,1025.49C1194.74,1028.47 1193.93,1031.55 1193.44,1034.74L1134.54,1069.71C1132.87,1061.73 1132,1053.47 1132,1045C1132,1015.12 1142.85,987.756 1160.85,966.661Z"/>
        </g>
        <g transform="matrix(0.96611,0,0,0.96611,-240.012,-344.316)">
            <path d="M1228.29,926.538C1236.27,924.872 1244.53,924 1253,924C1282.88,924 1310.24,934.854 1331.34,952.849L1272.51,987.782C1269.53,986.736 1266.45,985.931 1263.26,985.436L1228.29,926.538Z"/>
        </g>
        <g transform="matrix(1.8634,0.474905,-0.474905,1.8634,-413.899,-1186.81)">
            <path d="M990.083,782.205L1108.69,900.811L1080.81,928.689L962.228,810.106C974.575,804.076 984.249,794.131 990.083,782.205Z"/>
        </g>
        <g transform="matrix(1.8634,0.474905,-0.474905,1.8634,-413.899,-1186.81)">
            <path d="M880.894,782.228C886.924,794.575 896.869,804.249 908.795,810.083L790.189,928.689L762.311,900.811L880.894,782.228Z"/>
        </g>
        <g transform="matrix(1.8634,0.474905,-0.474905,1.8634,-413.899,-1186.81)">
            <path d="M962.205,700.917L1080.81,582.311L1108.69,610.189L990.106,728.772C984.076,716.425 974.131,706.751 962.205,700.917Z"/>
        </g>
        <g transform="matrix(1.8634,0.474905,-0.474905,1.8634,-413.899,-1186.81)">
            <path d="M908.772,700.894C896.425,706.924 886.751,716.869 880.917,728.795L762.311,610.189L790.189,582.311L908.772,700.894Z"/>
        </g>
        <g transform="matrix(1.8634,0.474905,-0.474905,1.8634,-413.899,-1186.81)">
            <path d="M965.777,757.899L990.083,782.205C984.258,794.118 974.584,804.073 962.228,810.106L937.894,785.772C939.601,785.668 941.306,785.388 943.007,784.954C955.941,781.658 964.81,770.499 965.777,757.899Z"/>
        </g>
        <g transform="matrix(1.8634,0.474905,-0.474905,1.8634,-413.899,-1186.81)">
            <path d="M905.228,757.894C905.332,759.601 905.612,761.306 906.046,763.007C909.342,775.941 920.501,784.81 933.101,785.777L908.795,810.083C896.882,804.258 886.927,794.584 880.894,782.228L905.228,757.894Z"/>
        </g>
        <g transform="matrix(1.8634,0.474905,-0.474905,1.8634,-413.899,-1186.81)">
            <path d="M962.205,700.917C974.118,706.742 984.073,716.416 990.106,728.772L965.772,753.106C965.668,751.399 965.388,749.694 964.954,747.993C961.658,735.059 950.499,726.19 937.899,725.223L962.205,700.917Z"/>
        </g>
        <g transform="matrix(1.8634,0.474905,-0.474905,1.8634,-413.899,-1186.81)">
            <path d="M908.772,700.894L933.106,725.228C931.399,725.332 929.694,725.612 927.993,726.046C915.059,729.342 906.19,740.501 905.223,753.101L880.917,728.795C886.742,716.882 896.416,706.927 908.772,700.894Z"/>
        </g>
    </g>
    <g>
        <g transform="matrix(0.973598,0.162446,-0.162446,0.973598,426.45,175.348)">
            <path d="M1235.77,680.458C1222.93,679.847 1210.07,679.847 1197.23,680.458L1168.58,759.287C1151.49,761.797 1134.62,765.647 1118.14,770.8L1058.12,712.209C1046.29,717.229 1034.7,722.81 1023.4,728.931L1031.79,812.385C1017.48,822.061 1003.95,832.847 991.335,844.643L911.84,817.895C903.357,827.552 895.339,837.607 887.811,848.026L931.578,919.576C922.885,934.502 915.38,950.088 909.129,966.191L825.901,976.583C822.449,988.965 819.587,1001.5 817.325,1014.16L887.802,1059.63C886.447,1076.85 886.447,1094.15 887.802,1111.37L817.325,1156.84C819.587,1169.5 822.449,1182.04 825.901,1194.42L909.129,1204.81C915.38,1220.91 922.885,1236.5 931.578,1251.42L887.811,1322.97C895.339,1333.39 903.357,1343.45 911.84,1353.11L991.335,1326.36C1003.95,1338.15 1017.48,1348.94 1031.79,1358.62L1023.4,1442.07C1034.7,1448.19 1046.29,1453.77 1058.12,1458.79L1118.14,1400.2C1134.62,1405.35 1151.49,1409.2 1168.58,1411.71L1197.23,1490.54C1210.07,1491.15 1222.93,1491.15 1235.77,1490.54L1264.42,1411.71C1281.51,1409.2 1298.38,1405.35 1314.86,1400.2L1374.88,1458.79C1386.71,1453.77 1398.3,1448.19 1409.6,1442.07L1401.21,1358.62C1415.52,1348.94 1429.05,1338.15 1441.66,1326.36L1521.16,1353.11C1529.64,1343.45 1537.66,1333.39 1545.19,1322.97L1501.42,1251.42C1510.12,1236.5 1517.62,1220.91 1523.87,1204.81L1607.1,1194.42C1610.55,1182.04 1613.41,1169.5 1615.67,1156.84L1545.2,1111.37C1546.55,1094.15 1546.55,1076.85 1545.2,1059.63L1615.67,1014.16C1613.41,1001.5 1610.55,988.965 1607.1,976.583L1523.87,966.191C1517.62,950.088 1510.12,934.502 1501.42,919.576L1545.19,848.026C1537.66,837.607 1529.64,827.552 1521.16,817.895L1441.66,844.643C1429.05,832.847 1415.52,822.061 1401.21,812.385L1409.6,728.931C1398.3,722.81 1386.71,717.229 1374.88,712.209L1314.86,770.8C1298.38,765.647 1281.51,761.797 1264.42,759.287L1235.77,680.458ZM1216.5,809.649C1368.75,809.649 1492.35,933.254 1492.35,1085.5C1492.35,1237.75 1368.75,1361.35 1216.5,1361.35C1064.25,1361.35 940.649,1237.75 940.649,1085.5C940.649,933.254 1064.25,809.649 1216.5,809.649Z"/>
        </g>
        <g transform="matrix(1.37675,0,0,1.37675,-1535.72,568.41)">
            <path d="M2110.32,713.027L2119.18,712.806L2066.46,838.075L2018.94,810.638L2101.26,698.471L2110.32,713.027Z"/>
        </g>
        <g transform="matrix(1.37675,0,0,1.37675,-1535.72,568.41)">
            <path d="M2215.4,700.97L2295.88,810.638L2248.36,838.075L2194.85,710.912L2210.25,710.527L2215.4,700.97Z"/>
        </g>
        <g transform="matrix(1.37675,0,0,1.37675,-1535.72,568.41)">
            <path d="M2065.93,612.495L2057.48,628.174L2061.7,634.95L1927.99,653.11L1927.99,598.236L2065.93,612.495Z"/>
        </g>
        <g transform="matrix(1.37675,0,0,1.37675,-1535.72,568.41)">
            <path d="M2250.58,612.32L2386.83,598.236L2386.83,653.11L2251.14,634.681L2257.34,623.173L2250.58,612.32Z"/>
        </g>
        <g transform="matrix(1.37675,0,0,1.37675,-1535.72,568.41)">
            <path d="M2193.74,538.588L2248.36,413.272L2295.88,440.709L2212.05,550.438L2204.5,538.319L2193.74,538.588Z"/>
        </g>
        <g transform="matrix(1.37675,0,0,1.37675,-1535.72,568.41)">
            <path d="M2121.86,540.387L2104.57,540.819L2100.79,547.839L2018.94,440.709L2066.46,413.272L2121.86,540.387Z"/>
        </g>
        <g transform="matrix(1.37675,0,0,1.37675,24.0576,-150.617)">
            <path d="M1010.94,1176.38C1015.01,1178.37 1019.62,1179.47 1024.47,1179.47C1029.33,1179.47 1033.93,1178.37 1038.01,1176.38L1061.91,1233.18L986.238,1235.07L1010.94,1176.38Z"/>
        </g>
        <g transform="matrix(1.37675,0,0,1.37675,24.0576,-150.617)">
            <path d="M1055.98,1148.5L1118.2,1156.94L1082.46,1223.24L1044.85,1171.98C1051.55,1166.31 1055.84,1157.89 1055.98,1148.5Z"/>
        </g>
        <g transform="matrix(1.37675,0,0,1.37675,24.0576,-150.617)">
            <path d="M992.964,1148.5C993.113,1157.91 997.404,1166.32 1004.1,1171.98L968.316,1220.74L928.762,1157.21L992.964,1148.5Z"/>
        </g>
        <g transform="matrix(1.37675,0,0,1.37675,24.0576,-150.617)">
            <path d="M993.718,1141.04L932.995,1134.76L967.849,1070.1L1007.18,1121.59C1000.45,1126 995.511,1132.93 993.718,1141.04Z"/>
        </g>
        <g transform="matrix(1.37675,0,0,1.37675,24.0576,-150.617)">
            <path d="M1041.76,1121.59L1079.11,1072.7L1117.64,1134.58L1055.22,1141.04C1053.42,1132.94 1048.51,1126.02 1041.76,1121.59Z"/>
        </g>
        <g transform="matrix(1.37675,0,0,1.37675,24.0576,-150.617)">
            <path d="M1013.26,1118.49L988.924,1062.65L1060.8,1060.85L1035.68,1118.49C1032.24,1117.14 1028.44,1116.4 1024.47,1116.4C1020.5,1116.4 1016.71,1117.14 1013.26,1118.49Z"/>
        </g>
        <g transform="matrix(1.37675,0,0,1.37675,24.0576,-150.617)">
            <path d="M1004.1,1171.98C1006.16,1173.74 1008.45,1175.23 1010.94,1176.38L986.238,1235.07L977.381,1235.29L968.316,1220.74L1004.1,1171.98Z"/>
        </g>
        <g transform="matrix(1.37675,0,0,1.37675,24.0576,-150.617)">
            <path d="M1044.85,1171.98L1082.46,1223.24L1077.31,1232.79L1061.91,1233.18L1038.01,1176.38C1040.49,1175.21 1042.79,1173.72 1044.85,1171.98Z"/>
        </g>
        <g transform="matrix(1.37675,0,0,1.37675,24.0576,-150.617)">
            <path d="M932.995,1134.76L993.718,1141.04C993.199,1143.24 992.936,1145.56 992.936,1147.94L992.964,1148.5L928.762,1157.21L924.543,1150.44L932.995,1134.76Z"/>
        </g>
        <g transform="matrix(1.37675,0,0,1.37675,24.0576,-150.617)">
            <path d="M1124.4,1145.44L1118.2,1156.94L1055.98,1148.5L1056.01,1147.94C1056.01,1145.56 1055.74,1143.24 1055.22,1141.04L1117.64,1134.58L1124.4,1145.44Z"/>
        </g>
        <g transform="matrix(1.37675,0,0,1.37675,24.0576,-150.617)">
            <path d="M988.924,1062.65L1013.26,1118.49C1011.12,1119.31 1009.08,1120.35 1007.18,1121.59L967.849,1070.1L971.634,1063.08L988.924,1062.65Z"/>
        </g>
        <g transform="matrix(1.37675,0,0,1.37675,24.0576,-150.617)">
            <path d="M1079.11,1072.7L1041.76,1121.59C1039.87,1120.33 1037.83,1119.28 1035.68,1118.49L1060.8,1060.85L1071.56,1060.58L1079.11,1072.7Z"/>
        </g>
    </g>
    <g transform="matrix(1.37675,0,0,1.37675,24.0576,-150.617)">
        <path d="M1359.78,458.714C1351.72,457.103 1343.6,455.868 1335.42,455.013L1305.47,514.297C1299.14,514.373 1292.82,514.744 1286.53,515.409L1249.85,460.037C1241.83,461.842 1233.91,464.019 1226.1,466.561L1222.85,532.902C1217.1,535.546 1211.47,538.456 1205.99,541.623L1149.96,505.959C1143.37,510.867 1137.02,516.079 1130.91,521.579L1154.93,583.507C1150.75,588.26 1146.8,593.206 1143.08,598.328L1077.38,588.538C1073.36,595.701 1069.68,603.048 1066.34,610.554L1113.47,657.36C1111.58,663.402 1109.98,669.529 1108.67,675.719L1044.67,693.497C1043.91,701.676 1043.54,709.886 1043.54,718.101L1105.63,741.693C1106.37,747.978 1107.4,754.226 1108.71,760.415L1057.48,802.686C1060.11,810.467 1063.11,818.122 1066.45,825.624L1132.77,821.922C1136,827.365 1139.48,832.653 1143.2,837.771L1113.59,897.226C1119.16,903.264 1125.01,909.039 1131.12,914.532L1190.2,884.177C1195.36,887.835 1200.69,891.25 1206.17,894.411L1203.31,960.77C1210.85,964.021 1218.54,966.918 1226.36,969.452L1267.98,917.692C1274.18,918.933 1280.44,919.884 1286.74,920.542L1311.11,982.331C1319.32,982.232 1327.53,981.75 1335.7,980.887L1352.67,916.672C1358.84,915.282 1364.95,913.605 1370.97,911.646L1418.36,958.18C1425.82,954.749 1433.12,950.972 1440.24,946.861L1429.62,881.294C1434.7,877.513 1439.59,873.497 1444.29,869.26L1506.52,892.494C1511.94,886.324 1517.07,879.904 1521.9,873.256L1485.53,817.675C1488.63,812.156 1491.47,806.497 1494.04,800.714L1560.34,796.631C1562.78,788.788 1564.86,780.836 1566.56,772.8L1510.73,736.815C1511.32,730.513 1511.61,724.188 1511.61,717.86L1570.51,687.165C1569.55,679.006 1568.22,670.897 1566.5,662.862L1500.87,652.695C1498.84,646.701 1496.53,640.804 1493.95,635.023L1535.28,583.025C1531.09,575.961 1526.57,569.096 1521.74,562.453L1457.64,579.862C1453.35,575.21 1448.84,570.761 1444.14,566.529L1460.74,502.217C1454.04,497.469 1447.12,493.036 1440,488.932L1388.52,530.907C1382.71,528.403 1376.79,526.171 1370.77,524.219L1359.78,458.714ZM1303.06,819.184C1318.64,819.184 1331.29,831.834 1331.29,847.416C1331.29,862.998 1318.64,875.649 1303.06,875.649C1287.48,875.649 1274.83,862.998 1274.83,847.416C1274.83,831.834 1287.48,819.184 1303.06,819.184ZM1197.64,754.861C1212.82,756.238 1224.03,769.679 1222.65,784.859C1221.28,800.038 1207.84,811.245 1192.66,809.868C1177.48,808.492 1166.27,795.05 1167.65,779.871C1169.02,764.691 1182.46,753.485 1197.64,754.861ZM1418.56,755.429C1433.43,755.239 1445.65,767.155 1445.84,782.021C1446.03,796.887 1434.11,809.111 1419.25,809.301C1404.38,809.49 1392.16,797.575 1391.97,782.709C1391.78,767.842 1403.69,755.619 1418.56,755.429ZM1318.67,647.276C1357.68,653.204 1384.54,689.692 1378.61,728.706C1372.68,767.72 1336.2,794.582 1297.18,788.653C1258.17,782.725 1231.31,746.237 1237.24,707.223C1243.16,668.209 1279.65,641.348 1318.67,647.276ZM1195.15,617.458C1209.87,617.458 1221.83,629.411 1221.83,644.134C1221.83,658.857 1209.87,670.81 1195.15,670.81C1180.43,670.81 1168.47,658.857 1168.47,644.134C1168.47,629.411 1180.43,617.458 1195.15,617.458ZM1418.9,618.106C1433.27,618.106 1444.93,629.769 1444.93,644.134C1444.93,658.499 1433.27,670.161 1418.9,670.161C1404.54,670.161 1392.88,658.499 1392.88,644.134C1392.88,629.769 1404.54,618.106 1418.9,618.106ZM1303.06,557.291C1317.28,557.291 1328.83,568.837 1328.83,583.059C1328.83,597.281 1317.28,608.827 1303.06,608.827C1288.84,608.827 1277.29,597.281 1277.29,583.059C1277.29,568.837 1288.84,557.291 1303.06,557.291Z"/>
    </g>
</svg>
