<?xml version="1.0" encoding="UTF-8" standalone="no"?>
<!DOCTYPE svg PUBLIC "-//W3C//DTD SVG 1.1//EN" "http://www.w3.org/Graphics/SVG/1.1/DTD/svg11.dtd">
<svg width="100%" height="100%" viewBox="0 0 2732 2048" version="1.1" xmlns="http://www.w3.org/2000/svg" xmlns:xlink="http://www.w3.org/1999/xlink" xml:space="preserve" xmlns:serif="http://www.serif.com/" style="fill-rule:evenodd;clip-rule:evenodd;stroke-linejoin:round;stroke-miterlimit:1.41421;">
    <g transform="matrix(3.04991,0,0,3.04991,-2589.41,-1204.13)">
        <path d="M1359.78,458.714C1351.72,457.103 1343.6,455.868 1335.42,455.013L1305.47,514.297C1299.14,514.373 1292.82,514.744 1286.53,515.409L1249.85,460.037C1241.83,461.842 1233.91,464.019 1226.1,466.561L1222.85,532.902C1217.1,535.546 1211.47,538.456 1205.99,541.623L1149.96,505.959C1143.37,510.867 1137.02,516.079 1130.91,521.579L1154.93,583.507C1150.75,588.26 1146.8,593.206 1143.08,598.328L1077.38,588.538C1073.36,595.701 1069.68,603.048 1066.34,610.554L1113.47,657.36C1111.58,663.402 1109.98,669.529 1108.67,675.719L1044.67,693.497C1043.91,701.676 1043.54,709.886 1043.54,718.101L1105.63,741.693C1106.37,747.978 1107.4,754.226 1108.71,760.415L1057.48,802.686C1060.11,810.467 1063.11,818.122 1066.45,825.624L1132.77,821.922C1136,827.365 1139.48,832.653 1143.2,837.771L1113.59,897.226C1119.16,903.264 1125.01,909.039 1131.12,914.532L1190.2,884.177C1195.36,887.835 1200.69,891.25 1206.17,894.411L1203.31,960.77C1210.85,964.021 1218.54,966.918 1226.36,969.452L1267.98,917.692C1274.18,918.933 1280.44,919.884 1286.74,920.542L1311.11,982.331C1319.32,982.232 1327.53,981.75 1335.7,980.887L1352.67,916.672C1358.84,915.282 1364.95,913.605 1370.97,911.646L1418.36,958.18C1425.82,954.749 1433.12,950.972 1440.24,946.861L1429.62,881.294C1434.7,877.513 1439.59,873.497 1444.29,869.26L1506.52,892.494C1511.94,886.324 1517.07,879.904 1521.9,873.256L1485.53,817.675C1488.63,812.156 1491.47,806.497 1494.04,800.714L1560.34,796.631C1562.78,788.788 1564.86,780.836 1566.56,772.8L1510.73,736.815C1511.32,730.513 1511.61,724.188 1511.61,717.86L1570.51,687.165C1569.55,679.006 1568.22,670.897 1566.5,662.862L1500.87,652.695C1498.84,646.701 1496.53,640.804 1493.95,635.023L1535.28,583.025C1531.09,575.961 1526.57,569.096 1521.74,562.453L1457.64,579.862C1453.35,575.21 1448.84,570.761 1444.14,566.529L1460.74,502.217C1454.04,497.469 1447.12,493.036 1440,488.932L1388.52,530.907C1382.71,528.403 1376.79,526.171 1370.77,524.219L1359.78,458.714ZM1303.06,819.184C1318.64,819.184 1331.29,831.834 1331.29,847.416C1331.29,862.998 1318.64,875.649 1303.06,875.649C1287.48,875.649 1274.83,862.998 1274.83,847.416C1274.83,831.834 1287.48,819.184 1303.06,819.184ZM1197.64,754.861C1212.82,756.238 1224.03,769.679 1222.65,784.859C1221.28,800.038 1207.84,811.245 1192.66,809.868C1177.48,808.492 1166.27,795.05 1167.65,779.871C1169.02,764.691 1182.46,753.485 1197.64,754.861ZM1418.56,755.429C1433.43,755.239 1445.65,767.155 1445.84,782.021C1446.03,796.887 1434.11,809.111 1419.25,809.301C1404.38,809.49 1392.16,797.575 1391.97,782.709C1391.78,767.842 1403.69,755.619 1418.56,755.429ZM1318.67,647.276C1357.68,653.204 1384.54,689.692 1378.61,728.706C1372.68,767.72 1336.2,794.582 1297.18,788.653C1258.17,782.725 1231.31,746.237 1237.24,707.223C1243.16,668.209 1279.65,641.348 1318.67,647.276ZM1195.15,617.458C1209.87,617.458 1221.83,629.411 1221.83,644.134C1221.83,658.857 1209.87,670.81 1195.15,670.81C1180.43,670.81 1168.47,658.857 1168.47,644.134C1168.47,629.411 1180.43,617.458 1195.15,617.458ZM1418.9,618.106C1433.27,618.106 1444.93,629.769 1444.93,644.134C1444.93,658.499 1433.27,670.161 1418.9,670.161C1404.54,670.161 1392.88,658.499 1392.88,644.134C1392.88,629.769 1404.54,618.106 1418.9,618.106ZM1303.06,557.291C1317.28,557.291 1328.83,568.837 1328.83,583.059C1328.83,597.281 1317.28,608.827 1303.06,608.827C1288.84,608.827 1277.29,597.281 1277.29,583.059C1277.29,568.837 1288.84,557.291 1303.06,557.291Z"/>
    </g>
</svg>
